<svg width="36" height="36" viewBox="0 0 36 36" fill="none" xmlns="http://www.w3.org/2000/svg">
<path d="M31.1488 0H4.85126C2.17214 0 0.000183105 2.17186 0.000183105 4.85107V31.1488C0.000183105 33.828 2.17205 35.9998 4.85126 35.9998H17.8211L17.8432 23.1354H14.501C14.0667 23.1354 13.7141 22.7842 13.7125 22.3499L13.6964 18.2032C13.6948 17.7665 14.0483 17.4115 14.4851 17.4115H17.8211V13.4048C17.8211 8.75492 20.661 6.22304 24.8089 6.22304H28.2127C28.6481 6.22304 29.0013 6.57609 29.0013 7.01166V10.5082C29.0013 10.9436 28.6484 11.2966 28.2131 11.2968L26.1243 11.2978C23.8685 11.2978 23.4317 12.3697 23.4317 13.9428V17.4116H28.3884C28.8607 17.4116 29.2272 17.824 29.1715 18.2931L28.68 22.4398C28.633 22.8366 28.2965 23.1356 27.8969 23.1356H23.4538L23.4317 36H31.1489C33.8281 36 35.9999 33.8281 35.9999 31.149V4.85107C35.9998 2.17186 33.828 0 31.1488 0Z" fill="#475993"/>
</svg>
