<svg width="36" height="36" viewBox="0 0 36 36" fill="none" xmlns="http://www.w3.org/2000/svg">
<path d="M25.2754 0H10.7246C4.81103 0 0 4.81103 0 10.7246V25.2754C0 31.189 4.81103 36 10.7246 36H25.2754C31.189 36 36 31.189 36 25.2754V10.7246C35.9999 4.81103 31.1889 0 25.2754 0ZM32.3784 25.2754C32.3784 29.1982 29.1982 32.3784 25.2754 32.3784H10.7246C6.80175 32.3784 3.6216 29.1982 3.6216 25.2754V10.7246C3.6216 6.80169 6.80175 3.6216 10.7246 3.6216H25.2754C29.1982 3.6216 32.3784 6.80169 32.3784 10.7246V25.2754Z" fill="url(#paint0_linear_8_92)"/>
<path d="M18 8.68909C12.866 8.68909 8.68912 12.8659 8.68912 17.9999C8.68912 23.1339 12.866 27.3108 18 27.3108C23.134 27.3108 27.3109 23.1339 27.3109 17.9999C27.3109 12.8659 23.134 8.68909 18 8.68909ZM18 23.6893C14.8579 23.6893 12.3107 21.1421 12.3107 18C12.3107 14.8578 14.8579 12.3107 18 12.3107C21.1421 12.3107 23.6893 14.8578 23.6893 18C23.6893 21.142 21.1421 23.6893 18 23.6893Z" fill="url(#paint1_linear_8_92)"/>
<path d="M27.3287 10.9902C28.5608 10.9902 29.5597 9.99137 29.5597 8.75921C29.5597 7.52706 28.5608 6.5282 27.3287 6.5282C26.0965 6.5282 25.0977 7.52706 25.0977 8.75921C25.0977 9.99137 26.0965 10.9902 27.3287 10.9902Z" fill="url(#paint2_linear_8_92)"/>
<defs>
<linearGradient id="paint0_linear_8_92" x1="18" y1="35.8951" x2="18" y2="0.279605" gradientUnits="userSpaceOnUse">
<stop stop-color="#E09B3D"/>
<stop offset="0.3" stop-color="#C74C4D"/>
<stop offset="0.6" stop-color="#C21975"/>
<stop offset="1" stop-color="#7024C4"/>
</linearGradient>
<linearGradient id="paint1_linear_8_92" x1="18" y1="35.8951" x2="18" y2="0.279574" gradientUnits="userSpaceOnUse">
<stop stop-color="#E09B3D"/>
<stop offset="0.3" stop-color="#C74C4D"/>
<stop offset="0.6" stop-color="#C21975"/>
<stop offset="1" stop-color="#7024C4"/>
</linearGradient>
<linearGradient id="paint2_linear_8_92" x1="27.3287" y1="35.8952" x2="27.3287" y2="0.279664" gradientUnits="userSpaceOnUse">
<stop stop-color="#E09B3D"/>
<stop offset="0.3" stop-color="#C74C4D"/>
<stop offset="0.6" stop-color="#C21975"/>
<stop offset="1" stop-color="#7024C4"/>
</linearGradient>
</defs>
</svg>
