<svg width="100" height="100" viewBox="0 0 100 100" fill="none" xmlns="http://www.w3.org/2000/svg">
<path d="M90.3743 21.2824C90.3752 19.6414 90.1615 18.0073 89.7389 16.4216H87.3033C88.4241 20.0568 88.2588 23.9671 86.8354 27.4947C85.4119 31.0224 82.817 33.9523 79.4872 35.7916C76.1573 37.6309 72.2957 38.2675 68.5517 37.5942C64.8077 36.9209 61.4097 34.9788 58.9294 32.0946C56.449 29.2104 55.0375 25.56 54.9323 21.7574C54.827 17.9548 56.0345 14.232 58.3516 11.215C60.6686 8.19804 63.954 6.07103 67.655 5.1917C71.3561 4.31237 75.247 4.73437 78.6735 6.38672L79.9427 4.40234C77.2977 3.07576 74.3779 2.3897 71.4189 2.39957C68.4599 2.40944 65.5448 3.11495 62.9087 4.45915C60.2727 5.80335 57.9896 7.74856 56.2439 10.1377C54.4983 12.5269 53.3388 15.2931 52.8593 18.213C51.0266 16.9325 48.8777 16.1793 46.6466 16.0354C44.4156 15.8915 42.1877 16.3624 40.2057 17.3968C38.2237 18.4312 36.5634 19.9895 35.4056 21.9021C34.2478 23.8147 33.6369 26.0082 33.6393 28.2439V31.9028H22.0713C20.5966 31.8992 19.1733 32.4447 18.0787 33.4329C16.984 34.4212 16.2963 35.7815 16.1496 37.2489L10.8743 88.7395C10.7894 89.5681 10.8793 90.4052 11.1382 91.1969C11.3972 91.9885 11.8194 92.717 12.3775 93.3352C12.9357 93.9535 13.6173 94.4477 14.3785 94.786C15.1396 95.1242 15.9632 95.299 16.7961 95.299H74.95C75.7829 95.299 76.6066 95.1242 77.3677 94.7859C78.1288 94.4477 78.8105 93.9534 79.3686 93.3352C79.9267 92.717 80.3489 91.9885 80.6078 91.1968C80.8668 90.4052 80.9567 89.5681 80.8718 88.7395L75.8434 39.6582C79.9777 38.673 83.6597 36.3242 86.2959 32.9905C88.9321 29.6568 90.3687 25.5325 90.3743 21.2824V21.2824ZM35.983 28.2439C35.9811 26.3171 36.5426 24.4318 37.5984 22.8201C38.6542 21.2083 40.1583 19.9404 41.9254 19.1725C43.6925 18.4045 45.6457 18.17 47.5444 18.4979C49.4431 18.8257 51.2045 19.7015 52.6118 21.0176C52.6106 21.1058 52.6084 21.1939 52.6084 21.2824C52.6043 24.997 53.7022 28.6292 55.7632 31.7195V31.9028H35.983V28.2439ZM56.935 41.6134C57.302 41.6134 57.6608 41.7222 57.9659 41.9261C58.271 42.1301 58.5088 42.4199 58.6493 42.7589C58.7897 43.098 58.8264 43.4711 58.7548 43.831C58.6832 44.1909 58.5065 44.5216 58.247 44.7811C57.9875 45.0406 57.6568 45.2173 57.2969 45.2889C56.937 45.3605 56.5639 45.3237 56.2248 45.1833C55.8858 45.0428 55.596 44.805 55.3921 44.4998C55.1882 44.1947 55.0794 43.8359 55.0794 43.4689C55.0799 42.977 55.2756 42.5053 55.6235 42.1574C55.9714 41.8096 56.4431 41.6139 56.935 41.6134V41.6134ZM34.8111 41.6134C35.1781 41.6134 35.5369 41.7222 35.842 41.9261C36.1471 42.1301 36.3849 42.4199 36.5254 42.7589C36.6658 43.098 36.7025 43.4711 36.6309 43.831C36.5593 44.1909 36.3826 44.5216 36.1231 44.7811C35.8636 45.0406 35.5329 45.2173 35.173 45.2889C34.813 45.3605 34.44 45.3237 34.1009 45.1833C33.7618 45.0428 33.4721 44.805 33.2682 44.4998C33.0643 44.1947 32.9555 43.8359 32.9555 43.4689C32.956 42.977 33.1517 42.5053 33.4996 42.1574C33.8475 41.8096 34.3191 41.6139 34.8111 41.6134V41.6134ZM78.5402 88.9783C78.5917 89.4806 78.5372 89.9882 78.3802 90.4681C78.2233 90.9481 77.9673 91.3898 77.6289 91.7646C77.2905 92.1394 76.8773 92.4391 76.4158 92.6442C75.9544 92.8493 75.455 92.9552 74.95 92.9552H73.6358L66.341 86.1225C64.6773 84.5599 62.4799 83.6915 60.1974 83.6946H30.7524C28.47 83.6915 26.2725 84.5599 24.6089 86.1225L17.3141 92.9552H16.7961C16.2911 92.9552 15.7918 92.8493 15.3303 92.6442C14.8689 92.4391 14.4556 92.1394 14.1172 91.7646C13.7788 91.3898 13.5228 90.9481 13.3659 90.4681C13.2089 89.9882 13.1543 89.4806 13.2058 88.9783L18.4811 37.4877C18.57 36.598 18.987 35.7733 19.6506 35.1742C20.3143 34.5751 21.1772 34.2444 22.0713 34.2465H33.6392V39.4393C32.6682 39.7215 31.8316 40.3446 31.2832 41.1941C30.7347 42.0436 30.5112 43.0625 30.6537 44.0636C30.7962 45.0647 31.2952 45.9808 32.0589 46.6435C32.8227 47.3062 33.7999 47.6711 34.8111 47.6711C35.8223 47.6711 36.7995 47.3062 37.5633 46.6435C38.327 45.9808 38.826 45.0647 38.9685 44.0636C39.111 43.0625 38.8875 42.0436 38.3391 41.1941C37.7906 40.3446 36.954 39.7215 35.983 39.4393V34.2465H55.7632V39.4393C54.7921 39.7215 53.9555 40.3446 53.4071 41.1941C52.8586 42.0436 52.6351 43.0625 52.7776 44.0636C52.9201 45.0647 53.4191 45.9808 54.1829 46.6435C54.9466 47.3062 55.9238 47.6711 56.935 47.6711C57.9462 47.6711 58.9235 47.3062 59.6872 46.6435C60.4509 45.9808 60.9499 45.0647 61.0924 44.0636C61.2349 43.0625 61.0114 42.0436 60.463 41.1941C59.9145 40.3446 59.0779 39.7215 58.1069 39.4393V34.589C60.1017 36.6 62.524 38.1356 65.1937 39.082C67.8635 40.0283 70.7121 40.3609 73.5281 40.0552L78.5402 88.9783Z" fill="#1C1C1C"/>
<path d="M90 21C90 30.9168 81.7419 39 71.5 39C61.2581 39 53 30.9168 53 21C53 11.0832 61.2581 3 71.5 3C81.7419 3 90 11.0832 90 21Z" fill="#ECE5E5" stroke="#1C1C1C" stroke-width="2"/>
</svg>
