<svg width="36" height="36" viewBox="0 0 36 36" fill="none" xmlns="http://www.w3.org/2000/svg">
<g clip-path="url(#clip0_8_111)">
<path d="M35.4275 6.51091C34.6276 6.8656 33.7973 7.14542 32.9453 7.34799C33.8841 6.45588 34.59 5.34004 34.9882 4.09456C35.1018 3.739 34.7156 3.43153 34.3946 3.62191C33.2093 4.32496 31.9326 4.85238 30.5998 5.18969C30.5224 5.20926 30.4426 5.21918 30.3626 5.21918C30.1198 5.21918 29.8838 5.12904 29.6982 4.96543C28.2801 3.71565 26.4563 3.02734 24.5628 3.02734C23.7435 3.02734 22.9162 3.15505 22.104 3.40696C19.5874 4.18751 17.6456 6.2634 17.0364 8.82458C16.8078 9.78524 16.746 10.7468 16.8523 11.6824C16.8645 11.7899 16.8137 11.865 16.7824 11.9002C16.7274 11.9619 16.6493 11.9973 16.5683 11.9973C16.5593 11.9973 16.55 11.9968 16.5408 11.9959C11.032 11.4841 6.0645 8.83019 2.55319 4.52306C2.37414 4.30337 2.03077 4.33031 1.88806 4.57511C1.20045 5.75476 0.837078 7.10399 0.837078 8.47691C0.837078 10.581 1.68241 12.5638 3.15074 14.0093C2.53327 13.8629 1.93563 13.6324 1.38047 13.324C1.11189 13.1748 0.781431 13.3666 0.777657 13.6738C0.739213 16.7995 2.56925 19.5808 5.31071 20.8332C5.25551 20.8346 5.2003 20.8352 5.145 20.8352C4.71044 20.8352 4.27044 20.7932 3.83738 20.7104C3.53492 20.6527 3.28082 20.9396 3.37473 21.2329C4.26456 24.0109 6.65652 26.0586 9.51893 26.5236C7.1433 28.1183 4.37682 28.9595 1.49747 28.9595L0.599832 28.959C0.323263 28.959 0.0893514 29.1392 0.0188707 29.4071C-0.0505567 29.671 0.0773267 29.9493 0.313169 30.0865C3.55774 31.9747 7.25863 32.9727 11.0174 32.9727C14.3075 32.9727 17.3851 32.3197 20.1648 31.0321C22.7131 29.8517 24.965 28.1643 26.8579 26.0168C28.6212 24.0163 30.0001 21.7069 30.9561 19.1529C31.8674 16.7184 32.3491 14.1207 32.3491 11.6406V11.5225C32.349 11.1243 32.5292 10.7496 32.8434 10.4945C34.0358 9.5264 35.0741 8.38677 35.9294 7.10732C36.1553 6.76949 35.7991 6.34608 35.4275 6.51091Z" fill="#76A9EA"/>
</g>
<defs>
<clipPath id="clip0_8_111">
<rect width="36" height="36" fill="white"/>
</clipPath>
</defs>
</svg>
